<svg width="30" height="30" viewBox="0 0 30 30" fill="none" xmlns="http://www.w3.org/2000/svg">
<path d="M15 0C23.2845 0 30 6.71407 30 14.9968C30 23.2796 23.2845 29.9936 15 29.9936C12.3491 29.9982 9.74489 29.2968 7.45502 27.9616L0.00602318 29.9936L2.03402 22.5432C0.69746 20.2531 -0.00462244 17.6483 2.2903e-05 14.9968C2.2903e-05 6.71407 6.71552 0 15 0ZM9.88802 7.94831L9.58801 7.96031C9.39405 7.97367 9.20454 8.0246 9.03002 8.11028C8.86738 8.20252 8.71886 8.31768 8.58902 8.4522C8.40902 8.62167 8.30702 8.76864 8.19752 8.91111C7.6427 9.63231 7.34398 10.5177 7.34852 11.4276C7.35152 12.1624 7.54352 12.8778 7.84352 13.5466C8.45702 14.8993 9.46652 16.3315 10.7985 17.6587C11.1195 17.9782 11.4345 18.2991 11.7735 18.5975C13.4287 20.0543 15.4009 21.105 17.5335 21.6659L18.3855 21.7964C18.663 21.8114 18.9405 21.7904 19.2195 21.7769C19.6563 21.7538 20.0827 21.6356 20.469 21.4304C20.6653 21.329 20.857 21.2189 21.0435 21.1005C21.0435 21.1005 21.107 21.0575 21.231 20.9655C21.4335 20.8156 21.558 20.7091 21.726 20.5336C21.852 20.4037 21.957 20.2527 22.041 20.0807C22.158 19.8363 22.275 19.3699 22.323 18.9815C22.359 18.6845 22.3485 18.5226 22.344 18.4221C22.338 18.2616 22.2045 18.0952 22.059 18.0247L21.186 17.6333C21.186 17.6333 19.881 17.0649 19.083 16.702C18.9995 16.6656 18.91 16.6448 18.819 16.6405C18.7164 16.6297 18.6126 16.6412 18.5148 16.674C18.417 16.7069 18.3273 16.7604 18.252 16.8309C18.2445 16.8279 18.144 16.9134 17.0595 18.2271C16.9973 18.3107 16.9115 18.3739 16.8132 18.4087C16.7149 18.4434 16.6085 18.4481 16.5075 18.4221C16.4097 18.396 16.314 18.363 16.221 18.3231C16.035 18.2451 15.9705 18.2151 15.843 18.1611C14.9818 17.7861 14.1847 17.2785 13.4805 16.657C13.2915 16.492 13.116 16.312 12.936 16.1381C12.3459 15.573 11.8316 14.9338 11.406 14.2365L11.3175 14.094C11.2549 13.9977 11.2036 13.8946 11.1645 13.7866C11.1075 13.5661 11.256 13.3892 11.256 13.3892C11.256 13.3892 11.6205 12.9902 11.79 12.7743C11.955 12.5643 12.0945 12.3604 12.1845 12.2149C12.3615 11.93 12.417 11.6375 12.324 11.4111C11.904 10.3853 11.47 9.36501 11.022 8.35022C10.9335 8.14927 10.671 8.0053 10.4325 7.9768C10.3515 7.96681 10.2705 7.95881 10.1895 7.95281C9.98811 7.94126 9.78615 7.94326 9.58502 7.95881L9.88802 7.94831Z" fill="#2CB742"/>
</svg>
